<svg width="1093" height="179" viewBox="0 0 1093 179" fill="none" xmlns="http://www.w3.org/2000/svg">
<path d="M71.3711 178.682C108.707 178.682 129.541 155.785 129.541 121.75V31.6076H100.456V121.75C100.456 140.108 89.9358 151.66 71.3711 151.66C52.8064 151.66 42.2863 140.108 42.2863 121.75V31.6076H13.2016V121.75C13.2016 155.785 34.0354 178.682 71.3711 178.682ZM247.403 176H276.281V31.6076H247.609V130.62L185.933 31.6076H156.435V176H185.107V77.8132L247.403 176ZM303.693 176H342.06C389.091 176 418.588 150.009 418.588 103.804C418.588 58.6296 389.297 31.6076 342.06 31.6076H303.693V176ZM332.778 150.834V56.9794H343.091C370.526 56.9794 388.266 73.4814 388.266 103.804C388.266 134.951 370.526 150.834 343.091 150.834H332.778ZM479.289 28.926C451.648 28.926 433.909 45.6343 433.909 69.9747C433.909 116.18 496.204 112.055 496.204 136.808C496.204 146.09 489.809 151.66 479.083 151.66C466.088 151.66 458.043 142.79 454.124 133.301L429.577 145.265C433.703 157.023 446.492 178.682 477.433 178.682C507.549 178.682 525.701 160.117 525.701 134.745C525.701 89.9834 462.994 93.4901 462.994 69.5622C462.994 61.7237 468.769 55.7418 478.67 55.7418C491.253 55.7418 496.616 64.6116 499.71 71.4186L523.845 60.4861C520.338 49.9661 508.374 28.926 479.289 28.926ZM772.122 176L825.135 31.6076H793.162L756.239 141.758L719.316 31.6076H687.343L740.562 176H772.122ZM840.128 176H869.213V119.481H884.684L912.737 176H944.916L910.674 112.674C923.876 105.454 932.54 92.0461 932.54 74.5128C932.54 50.7912 915.213 31.6076 883.652 31.6076H840.128V176ZM869.213 94.934V56.7731H881.383C894.585 56.7731 902.63 63.9928 902.63 75.5441C902.63 88.3332 893.347 94.934 882.827 94.934H869.213ZM960.791 176H999.158C1046.19 176 1075.69 150.009 1075.69 103.804C1075.69 58.6296 1046.4 31.6076 999.158 31.6076H960.791V176ZM989.876 150.834V56.9794H1000.19C1027.62 56.9794 1045.36 73.4814 1045.36 103.804C1045.36 134.951 1027.62 150.834 1000.19 150.834H989.876Z" fill="url(#paint0_linear_1_66)"/>
<line x1="628.083" y1="122.708" x2="677.809" y2="168.232" stroke="white" stroke-width="26.4853"/>
<circle cx="613.121" cy="99.971" r="58.9901" stroke="white" stroke-width="28.8931"/>
<line x1="628.087" y1="122.708" x2="677.812" y2="168.233" stroke="white" stroke-width="26.4853"/>
<circle cx="613.124" cy="99.9705" r="58.9901" stroke="white" stroke-width="28.8931"/>
<path d="M668.524 120.225C670.821 121.061 672.019 123.609 671.025 125.842C667.578 133.579 662.605 140.559 656.389 146.356C649.091 153.161 640.286 158.143 630.695 160.893C621.103 163.644 610.996 164.085 601.201 162.181C592.857 160.559 584.941 157.275 577.918 152.539C575.891 151.173 575.558 148.377 577.063 146.451C578.568 144.525 581.34 144.2 583.383 145.543C589.293 149.431 595.918 152.136 602.89 153.492C611.314 155.129 620.006 154.749 628.255 152.384C636.504 150.019 644.076 145.735 650.352 139.882C655.546 135.038 659.731 129.233 662.683 122.804C663.703 120.583 666.227 119.389 668.524 120.225Z" fill="#00BE80"/>
<path d="M603.055 42.2023C602.63 39.7949 604.237 37.483 606.669 37.2279C615.092 36.3441 623.624 37.1605 631.753 39.6457C641.295 42.563 650.011 47.6974 657.189 54.629C664.367 61.5605 669.803 70.0924 673.051 79.5271C675.819 87.5642 676.932 96.062 676.343 104.512C676.173 106.95 673.918 108.637 671.498 108.297C669.077 107.956 667.409 105.718 667.552 103.277C667.963 96.2149 666.994 89.125 664.681 82.4091C661.887 74.2953 657.213 66.9578 651.04 60.9967C644.867 55.0356 637.371 50.62 629.165 48.1111C622.372 46.0344 615.253 45.3127 608.209 45.9707C605.775 46.198 603.479 44.6096 603.055 42.2023Z" fill="#FFB774"/>
<path d="M568.22 137.911C566.347 139.482 563.541 139.247 562.105 137.269C557.128 130.415 553.569 122.619 551.657 114.336C549.412 104.614 549.5 94.498 551.914 84.8161C554.328 75.1341 558.999 66.1609 565.546 58.6302C571.122 52.215 577.925 47.0017 585.537 43.2873C587.734 42.2153 590.322 43.3243 591.238 45.5908C592.153 47.8572 591.048 50.4208 588.864 51.5178C582.542 54.6924 576.887 59.0772 572.227 64.4377C566.597 70.9142 562.58 78.6311 560.504 86.9576C558.428 95.2841 558.352 103.984 560.282 112.345C561.88 119.266 564.815 125.792 568.906 131.564C570.32 133.558 570.092 136.34 568.22 137.911Z" fill="#FFE55E"/>
<defs>
<linearGradient id="paint0_linear_1_66" x1="275.5" y1="42" x2="-18.8825" y2="41.1308" gradientUnits="userSpaceOnUse">
<stop stop-color="white"/>
<stop offset="1" stop-color="white" stop-opacity="0"/>
</linearGradient>
</defs>
</svg>
